<svg width="17" height="26" viewBox="0 0 17 26" fill="none" xmlns="http://www.w3.org/2000/svg">
<path d="M1.4675 1.26955C2.13365 0.603408 3.03713 0.229172 3.9792 0.229172H7.53128V7.33333H3.9792C3.03713 7.33333 2.13365 6.9591 1.4675 6.29295C0.80136 5.62681 0.427124 4.72332 0.427124 3.78125C0.427124 2.83918 0.80136 1.9357 1.4675 1.26955Z" fill="white"/>
<path d="M13.0209 7.33333H9.46879V0.229172H13.0209C13.4873 0.229172 13.9492 0.321049 14.3802 0.499558C14.8112 0.678067 15.2027 0.939711 15.5326 1.26955C15.8624 1.59939 16.1241 1.99097 16.3026 2.42193C16.4811 2.85289 16.573 3.31479 16.573 3.78125C16.573 4.24772 16.4811 4.70961 16.3026 5.14057C16.1241 5.57153 15.8624 5.96311 15.5326 6.29295C15.2027 6.62279 14.8112 6.88444 14.3802 7.06295C13.9492 7.24145 13.4873 7.33333 13.0209 7.33333Z" fill="white"/>
<path d="M13.0209 9.27084C12.5544 9.27084 12.0925 9.36272 11.6615 9.54122C11.2306 9.71973 10.839 9.98138 10.5092 10.3112C10.1793 10.6411 9.91769 11.0326 9.73918 11.4636C9.56067 11.8946 9.46879 12.3565 9.46879 12.8229C9.46879 13.2894 9.56067 13.7513 9.73918 14.1822C9.91769 14.6132 10.1793 15.0048 10.5092 15.3346C10.839 15.6645 11.2306 15.9261 11.6615 16.1046C12.0925 16.2831 12.5544 16.375 13.0209 16.375C13.4873 16.375 13.9492 16.2831 14.3802 16.1046C14.8112 15.9261 15.2027 15.6645 15.5326 15.3346C15.8624 15.0048 16.1241 14.6132 16.3026 14.1822C16.4811 13.7513 16.573 13.2894 16.573 12.8229C16.573 12.3565 16.4811 11.8946 16.3026 11.4636C16.1241 11.0326 15.8624 10.6411 15.5326 10.3112C15.2027 9.98138 14.8112 9.71973 14.3802 9.54122C13.9492 9.36272 13.4873 9.27084 13.0209 9.27084Z" fill="white"/>
<path d="M1.4675 19.3529C2.13365 18.6867 3.03713 18.3125 3.9792 18.3125H7.53128V21.8646C7.53128 22.8067 7.15705 23.7101 6.4909 24.3763C5.82476 25.0424 4.92127 25.4167 3.9792 25.4167C3.03713 25.4167 2.13365 25.0424 1.4675 24.3763C0.80136 23.7101 0.427124 22.8067 0.427124 21.8646C0.427124 20.9225 0.80136 20.019 1.4675 19.3529Z" fill="white"/>
<path d="M3.9792 9.27084C3.03713 9.27084 2.13365 9.64507 1.4675 10.3112C0.80136 10.9774 0.427124 11.8808 0.427124 12.8229C0.427124 13.765 0.80136 14.6685 1.4675 15.3346C2.13365 16.0008 3.03713 16.375 3.9792 16.375H7.53128V9.27084H3.9792Z" fill="white"/>
</svg>
